<svg width="16" height="16" viewBox="0 0 16 16" fill="none" xmlns="http://www.w3.org/2000/svg">
<path d="M13.4141 11.9312C13.1193 11.2331 12.6916 10.5989 12.1547 10.0641C11.6194 9.52767 10.9854 9.10001 10.2875 8.80469C10.2813 8.80156 10.275 8.8 10.2688 8.79688C11.2422 8.09375 11.875 6.94844 11.875 5.65625C11.875 3.51562 10.1406 1.78125 8.00001 1.78125C5.85938 1.78125 4.12501 3.51562 4.12501 5.65625C4.12501 6.94844 4.75782 8.09375 5.73126 8.79844C5.72501 8.80156 5.71876 8.80312 5.71251 8.80625C5.01251 9.10156 4.38438 9.525 3.84532 10.0656C3.30893 10.6009 2.88127 11.235 2.58595 11.9328C2.29582 12.616 2.13936 13.3485 2.12501 14.0906C2.12459 14.1073 2.12752 14.1239 2.13361 14.1394C2.13971 14.1549 2.14885 14.1691 2.1605 14.181C2.17215 14.193 2.18607 14.2025 2.20144 14.2089C2.21681 14.2154 2.23333 14.2188 2.25001 14.2188H3.18751C3.25626 14.2188 3.31095 14.1641 3.31251 14.0969C3.34376 12.8906 3.82813 11.7609 4.68438 10.9047C5.57032 10.0188 6.74688 9.53125 8.00001 9.53125C9.25313 9.53125 10.4297 10.0188 11.3156 10.9047C12.1719 11.7609 12.6563 12.8906 12.6875 14.0969C12.6891 14.1656 12.7438 14.2188 12.8125 14.2188H13.75C13.7667 14.2188 13.7832 14.2154 13.7986 14.2089C13.814 14.2025 13.8279 14.193 13.8395 14.181C13.8512 14.1691 13.8603 14.1549 13.8664 14.1394C13.8725 14.1239 13.8754 14.1073 13.875 14.0906C13.8594 13.3438 13.7047 12.6172 13.4141 11.9312ZM8.00001 8.34375C7.28282 8.34375 6.60782 8.06406 6.10001 7.55625C5.5922 7.04844 5.31251 6.37344 5.31251 5.65625C5.31251 4.93906 5.5922 4.26406 6.10001 3.75625C6.60782 3.24844 7.28282 2.96875 8.00001 2.96875C8.7172 2.96875 9.3922 3.24844 9.90001 3.75625C10.4078 4.26406 10.6875 4.93906 10.6875 5.65625C10.6875 6.37344 10.4078 7.04844 9.90001 7.55625C9.3922 8.06406 8.7172 8.34375 8.00001 8.34375Z" fill="currentColor"/>
</svg>
